<?xml version="1.0" encoding="UTF-8" standalone="no"?>
<!DOCTYPE svg PUBLIC "-//W3C//DTD SVG 1.0//EN" "http://www.w3.org/TR/2001/PR-SVG-20010719/DTD/svg10.dtd">
<svg width="49cm" height="34cm" viewBox="-96 157 978 671" xmlns="http://www.w3.org/2000/svg" xmlns:xlink="http://www.w3.org/1999/xlink">
  <g>
    <line style="fill: none; fill-opacity:0; stroke-width: 1; stroke-dasharray: 4; stroke: #000000" x1="220" y1="180" x2="853.106" y2="654.829"/>
    <polygon style="fill: #000000" points="859.106,659.329 848.106,657.329 853.106,654.829 854.106,649.329 "/>
    <polygon style="fill: none; fill-opacity:0; stroke-width: 1; stroke: #000000" points="859.106,659.329 848.106,657.329 853.106,654.829 854.106,649.329 "/>
  </g>
  <text font-size="22.5778" style="fill: #000000;text-anchor:middle;font-family:sans-serif;font-style:normal;font-weight:normal" x="480" y="821.659">
    <tspan x="480" y="821.659">Lifetime (years)</tspan>
  </text>
  <text font-size="22.5778" style="fill: #000000;text-anchor:end;font-family:sans-serif;font-style:normal;font-weight:normal" x="40" y="453.385">
    <tspan x="40" y="453.385">Abundance</tspan>
    <tspan x="40" y="481.607">(# of items)</tspan>
  </text>
  <g>
    <line style="fill: none; fill-opacity:0; stroke-width: 2; stroke: #000000" x1="60" y1="780" x2="869" y2="780"/>
    <polygon style="fill: #000000" points="869,785 879,780 869,775 "/>
    <polygon style="fill: none; fill-opacity:0; stroke-width: 2; stroke: #000000" points="869,785 879,780 869,775 "/>
  </g>
  <g>
    <line style="fill: none; fill-opacity:0; stroke-width: 2; stroke: #000000" x1="60" y1="780" x2="60" y2="171"/>
    <polygon style="fill: #000000" points="65,171 60,161 55,171 "/>
    <polygon style="fill: none; fill-opacity:0; stroke-width: 2; stroke: #000000" points="65,171 60,161 55,171 "/>
  </g>
  <text font-size="16.9333" style="fill: #000000;text-anchor:middle;font-family:sans-serif;font-style:normal;font-weight:normal" x="180" y="240">
    <tspan x="180" y="240">Phones</tspan>
  </text>
  <text font-size="16.9333" style="fill: #000000;text-anchor:middle;font-family:sans-serif;font-style:normal;font-weight:normal" x="260" y="300">
    <tspan x="260" y="300">Laptops</tspan>
  </text>
  <text font-size="16.9333" style="fill: #000000;text-anchor:middle;font-family:sans-serif;font-style:normal;font-weight:normal" x="440" y="440">
    <tspan x="440" y="440">Cars</tspan>
  </text>
  <text font-size="16.9333" style="fill: #000000;text-anchor:middle;font-family:sans-serif;font-style:normal;font-weight:normal" x="540" y="520">
    <tspan x="540" y="520">Buses</tspan>
  </text>
  <text font-size="16.9333" style="fill: #000000;text-anchor:middle;font-family:sans-serif;font-style:normal;font-weight:normal" x="660" y="600">
    <tspan x="660" y="600">Planes</tspan>
  </text>
  <text font-size="16.9333" style="fill: #000000;text-anchor:middle;font-family:sans-serif;font-style:normal;font-weight:normal" x="780" y="700">
    <tspan x="780" y="700">Ships</tspan>
  </text>
  <text font-size="16.9333" style="fill: #000000;text-anchor:middle;font-family:sans-serif;font-style:normal;font-weight:normal" x="360" y="380">
    <tspan x="360" y="380">Fridges</tspan>
  </text>
  <g>
    <line style="fill: none; fill-opacity:0; stroke-width: 1; stroke-dasharray: 4; stroke: #000000" x1="720" y1="740" x2="86.8944" y2="265.171"/>
    <polygon style="fill: #000000" points="80.8944,260.671 91.8944,262.671 86.8944,265.171 85.8944,270.671 "/>
    <polygon style="fill: none; fill-opacity:0; stroke-width: 1; stroke: #000000" points="80.8944,260.671 91.8944,262.671 86.8944,265.171 85.8944,270.671 "/>
  </g>
  <text font-size="16.9333" style="fill: #000000;text-anchor:end;font-family:sans-serif;font-style:normal;font-weight:normal" x="860" y="535.75">
    <tspan x="860" y="535.75">Increasing cost,</tspan>
    <tspan x="860" y="556.917">size, need for</tspan>
    <tspan x="860" y="578.083">repairs and</tspan>
    <tspan x="860" y="599.25">safety</tspan>
  </text>
  <text font-size="16.9333" style="fill: #000000;text-anchor:start;font-family:sans-serif;font-style:normal;font-weight:normal" x="80" y="355.75">
    <tspan x="80" y="355.75">Easier to</tspan>
    <tspan x="80" y="376.917">replace but</tspan>
    <tspan x="80" y="398.083">harder to repair </tspan>
  </text>
</svg>
